HIERARCHY
ROOT Hips
{
	OFFSET 0.000000 0.000000 0.000000
	CHANNELS 6 Xposition Yposition Zposition Xrotation Yrotation Zrotation
	JOINT LeftUpLeg_virtual
	{
		OFFSET 0.000000 0.000000 0.000000
		CHANNELS 3 Xrotation Yrotation Zrotation
		JOINT LeftUpLeg
		{
			OFFSET 13.026900 -6.336304 -1.092800
			CHANNELS 3 Xrotation Yrotation Zrotation
			JOINT LeftLeg
			{
				OFFSET 0.524474 -46.096886 9.782700
				CHANNELS 3 Xrotation Yrotation Zrotation
				JOINT LeftFoot
				{
					OFFSET -0.524474 -53.427422 -12.948200
					CHANNELS 3 Xrotation Yrotation Zrotation
					JOINT LeftToeBase
					{
						OFFSET 0.192200 -14.009700 16.364100
						CHANNELS 3 Xrotation Yrotation Zrotation
						JOINT LeftToe_End
						{
							OFFSET -1.784700 -0.561700 9.474800
							CHANNELS 3 Xrotation Yrotation Zrotation
							End Site
							{
								OFFSET 0 0 0
							}
						}
					}
				}
			}
		}
	}
	JOINT RightUpLeg_virtual
	{
		OFFSET 0.000000 0.000000 0.000000
		CHANNELS 3 Xrotation Yrotation Zrotation
		JOINT RightUpLeg
		{
			OFFSET -12.883000 -6.336304 -1.092800
			CHANNELS 3 Xrotation Yrotation Zrotation
			JOINT RightLeg
			{
				OFFSET -0.524587 -46.096825 9.782800
				CHANNELS 3 Xrotation Yrotation Zrotation
				JOINT RightFoot
				{
					OFFSET 0.524587 -53.427383 -12.948300
					CHANNELS 3 Xrotation Yrotation Zrotation
					JOINT RightToeBase
					{
						OFFSET -0.192200 -14.009700 16.364100
						CHANNELS 3 Xrotation Yrotation Zrotation
						JOINT RightToe_End
						{
							OFFSET 1.784700 -0.561700 9.474800
							CHANNELS 3 Xrotation Yrotation Zrotation
							End Site
							{
								OFFSET 0 0 0
							}
						}
					}
				}
			}
		}
	}
	JOINT Spine_virtual
	{
		OFFSET 0.000000 0.000000 0.000000
		CHANNELS 3 Xrotation Yrotation Zrotation
		JOINT Spine
		{
			OFFSET 0.072000 7.257294 -0.789700
			CHANNELS 3 Xrotation Yrotation Zrotation
			JOINT Spine1
			{
				OFFSET 0.000000 12.508769 -0.658067
				CHANNELS 3 Xrotation Yrotation Zrotation
				JOINT Spine1_split
				{
					OFFSET 0.000000 12.508769 -0.658067
					CHANNELS 3 Xrotation Yrotation Zrotation
					JOINT Spine2
					{
						OFFSET 0.000000 12.508769 -0.658067
						CHANNELS 3 Xrotation Yrotation Zrotation
						JOINT Neck_virtual
						{
							OFFSET 0.000000 0.000000 0.000000
							CHANNELS 3 Xrotation Yrotation Zrotation
							JOINT Neck
							{
								OFFSET 0.000000 14.033295 7.520400
								CHANNELS 3 Xrotation Yrotation Zrotation
								JOINT Head
								{
									OFFSET 0.000000 8.198502 5.703100
									CHANNELS 3 Xrotation Yrotation Zrotation
									JOINT HeadTop_End
									{
										OFFSET 0.000000 17.760803 13.332701
										CHANNELS 3 Xrotation Yrotation Zrotation
										End Site
										{
											OFFSET 0 0 0
										}
									}
								}
							}
						}
						JOINT LeftShoulder_virtual
						{
							OFFSET 0.000000 0.000000 0.000000
							CHANNELS 3 Xrotation Yrotation Zrotation
							JOINT LeftShoulder
							{
								OFFSET 6.292450 5.785301 -0.669000
								CHANNELS 3 Xrotation Yrotation Zrotation
								JOINT LeftShoulder_split
								{
									OFFSET 6.292450 5.785301 -0.669000
									CHANNELS 3 Xrotation Yrotation Zrotation
									JOINT LeftArm
									{
										OFFSET 13.907140 -6.093903 1.965100
										CHANNELS 3 Xrotation Yrotation Zrotation
										JOINT LeftForeArm
										{
											OFFSET 34.140198 0.000000 0.000000
											CHANNELS 3 Xrotation Yrotation Zrotation
											JOINT LeftHand
											{
												OFFSET 40.960209 0.000000 0.000000
												CHANNELS 3 Xrotation Yrotation Zrotation
												End Site
												{
													OFFSET 0 0 0
												}
											}
										}
									}
								}
							}
						}
						JOINT RightShoulder_virtual
						{
							OFFSET 0.000000 0.000000 0.000000
							CHANNELS 3 Xrotation Yrotation Zrotation
							JOINT RightShoulder
							{
								OFFSET -6.292450 5.785301 -0.669000
								CHANNELS 3 Xrotation Yrotation Zrotation
								JOINT RightShoulder_split
								{
									OFFSET -6.292450 5.785301 -0.669000
									CHANNELS 3 Xrotation Yrotation Zrotation
									JOINT RightArm
									{
										OFFSET -13.907140 -6.093903 1.965100
										CHANNELS 3 Xrotation Yrotation Zrotation
										JOINT RightForeArm
										{
											OFFSET -34.140198 0.000000 0.000000
											CHANNELS 3 Xrotation Yrotation Zrotation
											JOINT RightHand
											{
												OFFSET -40.960209 0.000000 0.000000
												CHANNELS 3 Xrotation Yrotation Zrotation
												End Site
												{
													OFFSET 0 0 0
												}
											}
										}
									}
								}
							}
						}
					}
				}
			}
		}
	}
}
MOTION
Frames: 6
Frame Time: 0.03333333
-14.702230 84.327087 -145.118896 0.000000 0.000000 0.000000 164.231817 -74.705187 157.815551 -58.371275 -9.030253 39.072524 35.943034 -12.584242 -2.710543 18.969992 3.895441 -16.120855 -1.791620 1.359147 0.916274 0.000000 0.000000 0.000000 160.871883 -74.095381 154.847710 -44.080402 -0.777820 -30.032004 46.342291 4.402106 1.271998 1.100810 -1.416860 18.452874 -8.557845 0.056790 1.173172 0.000000 0.000000 0.000000 161.555912 -75.470230 154.952212 5.145773 8.920260 1.302620 -0.214114 12.602977 2.694307 -0.169950 2.616698 0.930490 0.000000 0.000000 0.000000 8.861768 14.627453 0.431229 4.503207 9.613635 -6.122468 -9.915526 16.928431 7.565285 0.000000 0.000000 0.000000 6.249910 15.362509 0.186463 6.577864 9.329907 -11.669798 12.666070 1.168697 -1.426571 -52.174924 -34.985578 -47.252704 37.089426 -87.409954 33.261515 0.000000 0.000000 0.000000 7.447250 15.328352 1.403784 -13.703941 3.354874 -3.666715 12.404413 -0.522969 -5.283866 -92.944060 37.533068 110.170808 -7.845502 40.685511 4.805605 0.000000 0.000000 0.000000 
-12.399521 85.718239 -149.259171 0.000000 0.000000 0.000000 163.385529 -76.157579 156.952338 -60.425468 -7.290464 37.446014 36.984166 -12.346177 -2.164155 18.684034 3.196167 -16.399957 -2.590900 1.183197 1.040453 0.000000 0.000000 0.000000 162.740322 -74.938015 156.826990 -43.062990 -4.666997 -25.665607 51.826205 2.493131 2.007062 -2.786268 -4.472877 16.745969 -8.525258 0.222680 0.859017 0.000000 0.000000 0.000000 164.223853 -74.497898 157.071921 5.888060 8.373767 1.388095 -0.389448 11.745107 2.948980 0.069261 2.507099 0.825487 0.000000 0.000000 0.000000 8.945714 13.931116 0.602237 3.483474 10.509861 -7.042428 -10.878540 18.328212 8.188203 0.000000 0.000000 0.000000 6.447535 14.499108 0.531322 6.020105 8.911474 -11.511442 13.668706 4.728216 -1.928064 -52.529913 -34.724709 -48.206068 49.404380 -87.895314 45.358217 0.000000 0.000000 0.000000 7.427519 14.468519 1.555974 -13.651253 2.534650 -4.488147 12.711732 -0.326127 -6.525848 -93.261076 38.763909 110.468474 -7.668419 40.387076 4.644865 0.000000 0.000000 0.000000 
-10.629137 86.879501 -151.692032 0.000000 0.000000 0.000000 161.420156 -77.783997 154.915725 -63.337034 -6.216553 35.379489 40.431530 -11.328051 -1.591939 17.897078 3.148681 -15.537681 -3.540444 1.145979 0.722383 0.000000 0.000000 0.000000 164.187762 -75.543955 158.367717 -41.263580 -7.879596 -21.981389 54.873200 1.377643 2.163895 -6.532209 -6.873373 15.737546 -8.336293 0.432864 0.654393 0.000000 0.000000 0.000000 166.595868 -73.695911 159.225151 6.377710 8.163714 1.497581 -0.557635 11.064509 3.114466 0.175884 2.232673 0.929908 0.000000 0.000000 0.000000 9.216462 13.403249 0.634470 2.673584 11.009066 -7.912447 -11.501123 19.506913 8.380181 0.000000 0.000000 0.000000 6.739411 13.824138 0.710211 5.521840 8.738349 -11.575058 14.169166 7.437542 -1.621535 -52.973011 -34.711916 -49.084400 38.918032 -87.540745 34.551185 0.000000 0.000000 0.000000 7.534168 13.801168 1.568730 -13.596266 1.711962 -5.090447 12.608231 -0.465063 -7.444879 -93.572799 40.270874 110.641893 -7.307122 40.213931 4.307805 0.000000 0.000000 0.000000 
-9.797215 87.695976 -153.017700 0.000000 0.000000 0.000000 158.658806 -79.001069 152.150838 -66.116224 -5.342961 33.908071 44.149373 -9.907534 -1.307559 17.174195 3.760411 -13.861508 -3.458289 1.284329 0.009774 0.000000 0.000000 0.000000 164.247075 -76.004446 158.519634 -39.476810 -9.826637 -19.678642 54.909236 1.286246 1.711016 -9.294262 -8.274109 15.265113 -7.365458 0.608679 0.738837 0.000000 0.000000 0.000000 168.269374 -73.364592 161.038020 6.656129 8.200170 1.432261 -0.658581 10.595343 3.137299 0.115886 1.661599 1.003152 0.000000 0.000000 0.000000 9.487417 13.060553 0.547601 2.033205 11.111206 -8.517993 -11.605577 20.284607 8.309370 0.000000 0.000000 0.000000 7.017637 13.348120 0.709444 5.118801 8.975047 -11.522264 13.897527 9.289275 -0.889834 -53.268273 -34.732840 -49.674579 22.344754 -86.251274 17.599828 0.000000 0.000000 0.000000 7.646869 13.327904 1.460872 -13.550967 0.829853 -5.387464 12.331266 -0.371924 -8.394863 -94.068883 41.911817 110.930605 -6.773883 39.635933 3.855427 0.000000 0.000000 0.000000 
-9.678600 88.178864 -153.569000 0.000000 0.000000 0.000000 157.239902 -79.335448 150.919013 -67.829106 -4.344353 33.571022 46.114596 -9.023192 -1.235726 16.787469 4.325217 -12.584786 -2.711472 1.501317 -0.612910 0.000000 0.000000 0.000000 164.414620 -76.038959 158.920375 -38.469763 -10.309062 -19.057462 53.721644 1.981779 1.046542 -10.901403 -8.557635 14.694028 -4.936472 0.688446 1.115887 0.000000 0.000000 0.000000 169.409223 -73.278313 162.587708 6.874731 8.336881 1.096877 -0.675011 10.341250 3.075561 -0.066190 1.214523 0.903564 0.000000 0.000000 0.000000 9.607322 12.868390 0.405676 1.666061 10.903318 -8.809233 -11.226066 20.550181 8.125949 0.000000 0.000000 0.000000 7.198548 13.060722 0.619414 4.826802 9.521241 -11.126180 12.842984 10.170088 -0.559020 -53.191065 -34.772131 -49.832900 13.794400 -84.534137 8.684841 0.000000 0.000000 0.000000 7.646948 13.027387 1.332730 -13.543438 -0.174636 -5.388763 11.987480 -0.069673 -9.191339 -94.658349 43.546059 111.577117 -6.151785 38.506684 3.418273 0.000000 0.000000 0.000000 
-10.175591 88.344376 -153.548752 0.000000 0.000000 0.000000 157.706363 -78.949337 151.821500 -67.930937 -3.062216 34.069796 45.815481 -8.716315 -1.169791 16.716926 4.629630 -11.912648 -2.095992 1.671517 -0.881342 0.000000 0.000000 0.000000 163.936356 -75.788517 158.711712 -38.403019 -9.602847 -19.740249 52.853937 3.139740 0.518231 -11.233328 -8.115597 14.064293 -2.085454 0.675684 1.594727 0.000000 0.000000 0.000000 169.706104 -73.283442 163.354424 7.094860 8.384266 0.476034 -0.655966 10.241198 2.988607 -0.192171 1.066394 0.812167 0.000000 0.000000 0.000000 9.556657 12.772238 0.290032 1.590158 10.377503 -8.752623 -10.450280 20.085860 7.955667 0.000000 0.000000 0.000000 7.175531 12.918350 0.566562 4.654683 10.183424 -10.364291 11.327826 9.642848 -0.514690 -52.667237 -34.761794 -49.565515 10.568913 -83.337351 5.135980 0.000000 0.000000 0.000000 7.527778 12.850817 1.286448 -13.571618 -1.366521 -5.193104 11.657354 0.352290 -9.890620 -94.987857 44.796960 112.444728 -5.569525 37.271106 3.129280 0.000000 0.000000 0.000000 
